<svg width="283" height="326" viewBox="0 0 283 326" fill="none" xmlns="http://www.w3.org/2000/svg">
<path d="M192.634 79.8379C192.634 79.8379 192.787 79.9507 192.967 80.0908C193.944 80.5882 194.742 80.9455 195.54 81.3029C204.57 86.1004 213.125 91.6421 221.039 98.1041C230.182 105.569 238.529 113.805 244.776 123.952C248.832 130.54 250.198 137.93 250.855 145.41C252.082 159.371 257.937 170.996 267.605 180.953C271.499 184.962 275.272 189.112 278.808 193.436C284.066 199.865 284.377 206.659 279.743 213.602C277.813 216.494 276.585 219.529 275.723 222.85C274.452 227.745 272.587 232.482 269.192 236.292C267.167 238.565 264.702 240.635 262.053 242.11C259.817 243.355 258.313 244.795 257.138 247.03C252.76 255.36 246.382 261.503 237.276 264.566C231.452 266.524 225.541 266.206 219.609 265.458C209.635 264.201 199.696 262.331 189.579 263.172C177.901 264.142 167.643 268.241 160.152 277.659C155.037 284.089 152.128 291.62 150.179 299.52C148.208 307.506 146.945 315.608 146.682 323.846C146.66 324.534 146.548 325.22 146.475 325.931C142.938 325.931 139.545 326.105 136.175 325.901C120.691 324.963 105.784 321.364 91.5644 315.267C81.3403 310.884 71.6341 305.462 62.5285 298.993C49.8033 289.952 38.4266 279.522 28.8614 267.162C14.3576 248.422 5.09021 227.402 1.51138 203.962C-3.12956 173.566 3.10631 145.158 17.623 118.361C23.9151 106.747 31.7153 96.1412 40.3663 86.186C53.4992 71.0733 66.5973 55.9242 80.0361 41.0849C91.6792 28.2285 103.607 15.6029 117.233 4.75794C119.255 3.14907 121.6 1.83981 123.977 0.806965C127.858 -0.880138 131.466 0.0731332 133.583 3.71399C135.37 6.78744 136.843 10.1988 137.662 13.6483C139.653 22.0349 141.02 30.5678 142.949 38.9709C144.56 45.9879 146.576 52.9136 148.479 59.8615C149.492 63.5596 151.763 65.4972 155.725 66.5696C164.449 68.9312 172.964 72.0608 181.818 75.0141C185.439 76.618 188.807 78.0848 192.176 79.5517C192.176 79.5517 192.204 79.5219 192.23 79.6285C192.256 79.7352 192.429 79.8463 192.429 79.8463L192.634 79.8379ZM3.47802 190.215C3.84707 190.431 4.21612 190.647 4.57209 191.187C4.43633 191.923 4.30056 192.66 3.85784 193.348C3.15026 192.531 2.44267 191.714 1.73509 190.897C1.55147 190.907 1.36784 190.918 1.18421 190.928C1.54324 193.389 1.88939 195.852 2.28392 198.308C2.31819 198.521 2.74031 198.646 2.86427 198.876C3.32528 199.729 3.73699 200.61 4.1283 201.796C4.2028 203.257 2.08495 204.468 3.59988 206.253C4.00407 205.772 4.31405 205.402 4.62402 205.033C4.78109 205.11 4.93815 205.187 5.09522 205.264C4.77506 206.338 4.04083 207.483 4.21213 208.472C4.73237 211.475 5.46095 214.462 6.38057 217.37C7.14439 219.785 8.29341 222.079 9.06028 224.621C8.11334 227.388 9.56022 229.511 10.8454 231.884C11.2374 232.652 11.6306 233.419 12.0213 234.187C12.7728 235.666 13.5546 237.129 14.2658 238.627C15.2112 240.617 16.0515 242.658 17.0282 244.632C18.1314 246.862 19.2864 249.069 20.5077 251.236C22.3594 254.522 24.2464 257.79 26.204 261.013C26.988 262.304 27.9977 263.459 28.9085 264.672C29.2031 265.065 29.4654 265.495 29.8195 265.827C31.3269 267.237 32.8784 268.601 34.3757 270.022C34.6658 270.297 34.8735 270.731 34.9693 271.128C35.6869 274.098 38.0724 275.765 40.1728 277.572C41.8072 278.978 43.9926 279.783 45.506 281.284C47.7274 283.488 49.3807 286.268 51.627 288.44C53.5637 290.313 55.9906 291.68 58.1989 293.269C58.1989 293.269 58.1967 293.267 58.2862 293.548C59.0231 294.265 59.6728 295.111 60.5125 295.674C63.5891 297.74 66.715 299.734 69.8528 301.706C70.8975 302.363 72.0505 302.845 73.1227 303.462C74.0337 303.985 74.8927 304.598 75.7872 305.152C77.5147 306.22 79.2461 307.282 80.9934 308.318C81.122 308.394 81.3956 308.245 81.595 308.18C84.1789 307.336 84.1786 307.335 84.1932 309.618C85.7842 310.268 87.3519 310.756 88.7662 311.525C90.5395 312.49 92.1269 313.795 93.9007 314.759C98.1753 317.081 103.471 316.272 107.616 319.419C109.187 320.612 111.794 320.443 114.266 320.903C115.429 321.185 116.592 321.467 118.044 321.892C119.366 322.123 120.689 322.354 122.357 322.605C127.488 323.168 132.619 323.732 138.067 324.298C138.383 324.302 138.7 324.307 139.299 324.449C140.343 324.393 141.387 324.338 142.768 324.277C145.211 324.261 144.939 322.472 144.948 320.592C144.44 319.289 144.375 318.192 145.374 316.906C146.019 316.077 145.965 314.65 146.074 313.477C146.254 311.546 146.074 309.553 146.474 307.677C147.233 304.115 148.295 300.618 149.273 296.761C150.927 292.27 152.096 287.513 154.376 283.365C156.465 279.565 158.915 275.783 162.372 272.875C165.885 269.92 169.271 266.835 173.796 265.384C174.77 265.072 175.524 264.075 176.554 263.254C177.703 263.175 179.236 263.107 180.76 262.957C184.414 262.598 188.06 262.159 191.717 261.837C193.248 261.703 194.866 262.066 195.985 260.548C196.145 260.331 196.81 260.168 196.931 260.289C198.274 261.639 199.988 260.989 201.514 261.306C206.711 262.389 211.846 263.674 217.222 262.8C217.686 262.725 218.192 262.944 218.682 262.981C220.14 263.09 221.608 263.321 223.058 263.24C225.919 263.081 228.766 262.12 231.592 263.674C232.154 263.983 233.191 263.519 233.98 263.303C234.653 263.119 235.261 262.658 235.937 262.53C238.835 261.985 241.949 261.963 243.725 258.966C243.814 258.817 244.088 258.707 244.28 258.701C245.714 258.657 246.293 257.722 247.172 256.698C248.175 255.53 249.142 254.577 249.374 252.99C249.419 252.683 250.15 252.244 250.549 252.26C252.381 252.331 252.925 251.095 253.491 249.725C254.031 248.42 254.51 247.004 255.388 245.946C256.987 244.021 258.049 241.701 260.936 240.792C263.059 240.123 264.908 238.206 266.549 236.525C267.742 235.303 268.415 233.567 269.283 232.039C269.902 230.95 270.46 229.826 271.198 228.427C272.508 228.565 273.053 227.605 272.811 225.952C272.752 225.55 272.808 225.104 272.919 224.708C273.507 222.626 274.129 220.553 274.676 218.184C275.061 217.161 275.331 216.072 275.864 215.134C276.327 214.32 277.088 213.677 277.933 212.811C280.051 210.918 280.435 208.349 280.847 205.432C280.938 204.398 281.029 203.365 281.12 201.989C280.697 200.827 280.273 199.666 279.829 198.198C279.269 197.308 278.708 196.419 278.016 195.273C276.644 193.511 275.272 191.748 273.735 189.755C273.071 189.122 272.355 188.536 271.752 187.85C269.444 185.221 264.745 184.722 264.74 180.019C264.74 179.814 264.367 179.616 264.18 179.403C262.789 177.815 261.394 176.232 260.016 174.633C259.194 173.681 258.2 172.808 257.633 171.718C256.115 168.795 254.702 165.81 253.406 162.782C252.242 160.062 250.753 157.593 250.718 154.295C250.672 149.903 249.486 145.523 248.783 140.777C248.571 139.205 248.36 137.633 248.149 136.061C247.911 136.067 247.674 136.073 247.437 136.079C247.314 136.768 247.192 137.458 246.94 138.385C246.728 138.841 246.517 139.298 246.306 139.754C246.142 139.75 245.977 139.747 245.813 139.743C245.669 138.792 245.526 137.841 245.404 136.57C245.616 136.076 245.711 135.467 246.062 135.107C247.668 133.462 247.702 132.819 246.014 130.844C245.66 131.159 245.308 131.473 244.709 131.65C243.337 130.647 243.256 129.39 243.894 127.924C244.103 127.444 244.339 126.728 244.133 126.359C243.219 124.721 242.148 123.17 240.978 121.722C240.877 121.814 240.779 121.911 240.563 121.814C240.471 121.599 240.378 121.384 240.217 120.873C239.528 120.118 238.838 119.364 237.888 118.452C236.212 116.524 234.751 115.31 233.788 115.046C234.18 112.092 234.18 112.092 232.195 111.624C231.336 110.386 230.957 109.481 230.283 108.948C229.139 108.043 227.222 107.651 226.692 106.538C225.876 104.823 224.789 104.566 223.273 104.718C223.229 102.204 223.227 102.207 221.079 100.495C220.692 100.186 220.363 99.7978 219.955 99.5246C217.617 97.9602 215.343 96.2758 212.883 94.9318C211.676 94.2726 210.116 94.26 208.631 93.9364C208.882 93.0318 209.058 92.3949 209.156 92.0404C207.699 90.7658 206.593 89.3795 205.156 88.6251C201.813 86.8712 198.309 85.424 194.873 83.8467C194.49 83.6707 193.966 83.5546 193.775 83.2456C191.811 80.0697 187.807 80.2262 185.217 78.0103C184.46 77.3623 182.9 77.6932 181.729 77.4667C181.089 77.3429 180.228 77.1678 179.925 76.7118C178.728 74.9115 176.932 74.4959 175.016 74.1439C174.13 73.981 173.175 73.7492 172.444 73.2609C169.4 71.2284 165.965 70.5659 162.416 70.138C162.416 70.138 162.412 70.1823 162.156 70.2644C161.402 70.1436 160.59 70.1598 159.903 69.8755C158.034 69.1022 156.291 67.8503 154.36 67.4514C152.46 67.0589 150.447 67.2669 148.83 65.6085C149.304 63.4829 147.906 62.191 146.684 60.4758C146.64 60.1254 146.631 59.7662 146.546 59.4258C145.453 55.0212 142.753 51.0515 143.005 46.2723C143.032 45.7493 142.649 45.2116 142.489 44.6707C142.055 43.196 141.64 41.7158 141.217 40.2378C141.023 39.535 140.515 38.8982 140.419 38.2045C140.125 36.0664 140.009 33.9044 139.785 31.7558C139.555 29.5568 138.254 28.5849 135.179 28.5722C137.187 31.1495 134.086 34.8557 138.347 36.448C138.485 36.4995 138.548 36.8063 138.606 37.0056C139.733 40.8482 140.974 44.6533 140.108 48.7863C139.961 49.4866 140.756 50.3951 141.145 51.193C141.519 51.9598 142.464 53.0484 142.235 53.4065C141.141 55.1178 141.835 56.7434 141.936 58.4583C142.236 63.5697 143.862 68.2272 146.334 72.6402C147.35 74.4539 147.044 76.8536 145.659 78.3247C144.831 79.2046 144.123 80.1981 143.536 80.9248C141.811 81.3396 140.062 81.4559 138.616 82.1767C136.246 83.3577 134.095 84.9705 131.81 86.3307C128.422 88.3473 124.982 90.2772 123.224 94.0978C123.063 94.4482 122.623 94.6799 122.293 94.9421C120.652 96.2457 118.94 97.4694 117.373 98.8562C115.015 100.944 112.933 103.276 110.155 104.954C104.883 108.139 99.5013 109.994 93.2338 108.7C91.4897 108.339 89.9706 107.838 89.217 106.354C87.6251 103.221 85.6826 100.071 85.0303 96.706C84.306 92.97 84.6198 88.968 84.929 85.1176C85.1901 81.8659 86.3212 78.6889 86.6528 75.4367C87.1255 70.801 88.6226 66.5054 90.1938 62.1859C91.0349 59.8735 91.3379 57.3489 92.3132 55.1065C93.5352 52.2973 95.2689 49.7148 96.6434 46.9654C97.4404 45.3712 97.9659 43.6416 98.7197 41.6994C97.7223 41.7617 97.1477 41.7975 95.9915 41.8696C97.2778 40.4629 98.2496 39.4696 99.143 38.4104C102.034 34.982 105.689 31.894 104.864 26.6866C104.717 25.7619 104.38 24.4752 103.717 24.1158C102.706 23.5675 101.234 22.7019 100.227 24.5297C100.051 24.8477 99.1684 24.7641 98.6195 24.8958C98.4287 24.9416 98.2596 25.0774 98.0625 25.1816C98.0625 25.7971 98.0625 26.3837 98.0625 26.9749C95.4586 26.8624 92.6878 28.4687 93.0714 30.1715C93.7506 33.1863 91.7311 33.9559 89.8464 34.7667C86.3539 36.2694 83.689 38.4369 82.5079 42.1879C82.3604 42.6565 81.7916 43.1123 81.3077 43.3368C77.3144 45.1885 75.0377 48.6613 72.7448 52.1562C71.9251 53.4056 70.9436 54.5637 69.9338 55.6707C68.3922 57.3608 66.6682 58.8909 65.1904 60.6318C62.7313 63.5287 60.4249 66.5546 58.0066 69.4869C57.5716 70.0144 56.784 70.2588 56.3712 70.7963C54.8719 72.7482 51.8608 73.6937 52.3727 76.8892C48.9697 77.2372 47.4816 79.9553 46.1878 82.2184C44.9804 84.3304 43.9593 86.263 41.7482 87.4504C40.849 87.9333 40.0002 88.6774 39.3888 89.4965C37.4606 92.0802 35.8095 94.8846 33.7436 97.3459C32.5577 98.7587 31.3309 99.8501 32.8536 102.135C30.018 101.341 29.3009 102.728 28.1967 104.611C26.6671 107.22 25.1783 109.952 23.0256 112.234C22.1082 113.206 20.6857 114.297 21.3148 116.272C21.4998 116.853 20.6407 118.158 19.9359 118.551C18.2663 119.482 17.5042 120.612 18.0261 121.988C17.2328 122.922 16.4821 123.486 16.1706 124.233C15.2317 126.483 14.5688 128.85 13.6002 131.086C12.5749 133.452 11.2916 135.706 10.1769 138.036C8.87098 140.766 8.25425 143.547 9.40825 146.548C9.70192 147.311 9.45229 148.283 9.45229 149.159C9.24654 149.171 9.04079 149.182 8.83504 149.193C8.35624 148.425 7.87745 147.656 7.39865 146.888C7.20164 146.94 7.00463 146.993 6.80762 147.046C6.80762 147.999 6.84825 148.955 6.79536 149.906C6.74926 150.734 6.89721 151.816 6.44349 152.339C3.74783 155.452 4.74187 159.524 3.51227 163.016C2.82646 164.963 2.83201 167.156 2.55383 169.243C2.37187 170.607 2.30112 171.989 2.06855 173.344C1.82177 174.782 1.03455 176.28 2.88498 177.62C2.51076 180.307 1.75307 182.975 2.85084 185.693C3.0937 186.295 2.83767 187.081 2.90769 187.773C2.9839 188.525 3.17231 189.266 3.47802 190.215ZM121.793 12.3121C118.071 16.3596 113.809 20.0362 110.722 24.5201C98.6176 42.1056 90.2386 61.3239 86.9632 82.5476C86.0173 88.6773 86.0108 94.8439 88.1466 100.797C90.3313 106.887 94.2836 109.036 100.605 107.618C102.113 107.28 103.599 106.753 105.019 106.137C110.345 103.826 114.541 99.9372 118.293 95.7128C124.826 88.3563 132.73 83.078 141.586 79.0382C145.926 77.0587 146.157 75.8792 144.245 71.4544C142.401 67.1858 140.57 62.8312 139.485 58.3335C137.597 50.5091 136.26 42.5506 134.742 34.6387C133.438 27.8393 132.553 20.9347 129.648 14.5465C127.712 10.2883 126.182 9.82408 121.793 12.3121Z" fill="#27AEA1"/>
<path d="M184.482 73.0328C184.482 73.0328 184.406 72.9445 184.26 72.8426C183.95 72.7055 183.786 72.6703 183.622 72.635C173.519 68.71 163.415 64.785 153 60.7388C153.615 60.072 154.011 59.507 154.531 59.0989C167.312 49.0763 179.809 38.6667 193.742 30.1903C196.217 28.6846 198.905 27.4313 201.639 26.4612C204.889 25.3083 206.307 26.3031 205.945 29.602C205.414 34.4442 204.651 39.2866 203.585 44.0403C201.756 52.1936 199.761 60.3178 197.544 68.3752C196.447 72.364 197.235 75.9239 198.997 80C197.723 79.4052 196.831 78.9884 195.733 78.4259C195.293 78.2095 195.059 78.1387 194.824 78.0679C194.824 78.0679 194.803 78.1079 194.725 77.9789C191.259 76.2442 187.87 74.6385 184.482 73.0328ZM181.549 39.6503C179.012 41.5668 176.464 43.4677 173.942 45.4029C168.671 49.4482 163.394 53.4876 158.171 57.5934C157.395 58.2031 156.211 59.5489 156.403 59.8834C156.932 60.8046 157.991 61.6298 159.023 62.02C161 62.768 163.16 63.0396 165.143 63.7773C168.992 65.2097 172.792 66.7813 176.574 68.3825C180.065 69.8603 183.515 71.435 186.968 73.0002C189.415 74.1094 191.827 75.2929 194.276 76.399C194.822 76.6461 195.454 76.7084 196.135 76.8778C196.25 76.4091 196.429 76.1115 196.362 75.8861C195.251 72.1572 196.406 68.5902 197.237 65.0393C198.137 61.1972 199.407 57.4406 200.31 53.5992C201.637 47.954 202.85 42.28 203.968 36.5904C204.402 34.381 204.499 32.0993 204.646 29.8439C204.762 28.0591 203.651 27.4183 202.041 27.6485C201.142 27.7769 200.213 28.0657 199.424 28.5056C196.532 30.1185 193.654 31.764 190.844 33.5127C187.777 35.4213 184.791 37.458 181.549 39.6503Z" fill="#3B9F94"/>
<path d="M184.488 73C187.589 74.3569 190.75 75.8305 194 77.4085C193.108 77.6664 191.818 77.285 191.63 79C188.437 77.8014 185.266 76.4528 182 74.9993C183.296 75.0422 184.687 75.1899 186.079 75.3377C186.155 75.2082 186.232 75.0787 186.308 74.9492C185.721 74.3384 185.135 73.7276 184.488 73Z" fill="#021F1A"/>
<path d="M195 81C194.387 80.7924 193.729 80.4526 193 80C193.604 80.2141 194.279 80.5409 195 81Z" fill="#021F1A"/>
<path d="M184 72.0832C184 71.8562 184 72.0823 184 72.9033C184 73.1776 184 72.8571 184 72.0832Z" fill="#021F1A"/>
<path d="M113.829 321C111.702 320.547 109.105 320.717 107.539 319.522C103.409 316.369 98.133 317.18 93.8739 314.854C92.1066 313.888 90.525 312.58 88.7582 311.614C87.349 310.843 85.787 310.354 84.2019 309.703C84.1873 307.416 84.1876 307.417 81.6132 308.263C81.4145 308.328 81.1418 308.477 81.0137 308.401C79.2728 307.364 77.5477 306.299 75.8265 305.229C74.9353 304.675 74.0794 304.061 73.1718 303.536C72.1034 302.919 70.9547 302.436 69.9138 301.778C66.7875 299.802 63.673 297.804 60.6075 295.735C59.771 295.17 59.1235 294.323 58.4134 293.436C58.5201 293.173 58.6027 293.078 58.6853 292.984C58.6268 292.978 58.5339 292.946 58.5156 292.971C58.4335 293.081 58.3727 293.207 58.3042 293.327C56.1021 291.734 53.6841 290.364 51.7545 288.488C49.5164 286.312 47.8691 283.527 45.6558 281.319C44.1479 279.815 41.9705 279.009 40.342 277.6C38.2494 275.79 35.8725 274.12 35.1576 271.145C35.0621 270.747 34.8552 270.313 34.5661 270.037C33.0743 268.613 31.5284 267.247 30.0265 265.834C29.6738 265.502 29.4124 265.071 29.1189 264.677C28.2114 263.462 27.2054 262.305 26.4243 261.012C24.4738 257.783 22.5937 254.509 20.7488 251.218C19.5319 249.047 18.3811 246.835 17.2819 244.602C16.3088 242.624 15.4716 240.579 14.5296 238.586C13.821 237.086 13.0421 235.619 12.2933 234.139C11.904 233.369 11.5123 232.6 11.3216 231.656C11.8165 230.697 12.234 229.934 12.3762 229.123C12.5651 228.046 12.4017 226.9 12.6379 225.839C12.9825 224.291 12.3921 223.885 11.0036 224.12C10.5207 224.202 10.0371 224.28 9.55381 224.36C8.579 222.008 7.43417 219.711 6.67314 217.291C5.75687 214.379 5.03095 211.386 4.51261 208.377C4.34193 207.387 5.07348 206.239 5.39248 205.163C5.23599 205.086 5.07949 205.01 4.923 204.933C4.61416 205.302 4.30531 205.672 3.9026 206.154C2.39319 204.366 4.50332 203.153 4.60406 201.507C5.37313 200.481 6.19871 199.715 6.51547 198.776C7.29253 196.474 5.29762 195.063 4.46544 193.276C4.60072 192.538 4.73599 191.799 5.01464 190.827C5.63419 189.658 6.53811 188.71 6.50926 187.792C6.40793 184.567 6.02286 181.348 5.63648 178.139C5.59008 177.754 4.87572 177.45 4.31104 177.109C3.83098 177.11 3.51084 177.111 3.19069 177.112C1.34662 176.128 2.13097 174.627 2.37685 173.187C2.60858 171.829 2.67907 170.445 2.86036 169.078C3.13753 166.988 3.132 164.791 3.8153 162.84C5.04042 159.343 4.05001 155.263 6.73583 152.145C7.18789 151.62 7.04049 150.537 7.08641 149.707C7.13911 148.754 7.09863 147.797 7.09863 146.842C7.29492 146.789 7.49121 146.736 7.68751 146.684C8.16456 147.454 8.6416 148.223 9.11865 148.993C9.32365 148.982 9.52865 148.971 9.73365 148.959C9.73365 148.081 9.98237 147.108 9.68977 146.343C8.53998 143.337 9.15447 140.551 10.4557 137.816C11.5663 135.482 12.8449 133.224 13.8664 130.853C14.8315 128.614 15.492 126.243 16.4275 123.988C16.7378 123.24 17.4858 122.675 18.2761 121.74C17.7562 120.361 18.5155 119.229 20.179 118.296C20.8812 117.902 21.7372 116.595 21.5529 116.013C20.926 114.035 22.3434 112.942 23.2575 111.968C25.4022 109.682 26.8857 106.945 28.4096 104.332C29.5098 102.445 30.2243 101.055 33.0496 101.851C31.5324 99.5622 32.7547 98.4689 33.9363 97.0535C35.9947 94.5878 37.6397 91.7784 39.561 89.1902C40.1701 88.3696 41.0158 87.6242 41.9117 87.1404C44.1148 85.9509 45.1321 84.0149 46.3351 81.8991C47.6242 79.632 49.1069 76.909 52.4974 76.5604C51.9875 73.3592 54.9875 72.4121 56.4813 70.4567C56.8927 69.9182 57.6774 69.6734 58.1108 69.145C60.5203 66.2074 62.8182 63.1762 65.2684 60.2741C66.7408 58.5301 68.4585 56.9973 69.9945 55.3041C71.0006 54.1952 71.9786 53.035 72.7953 51.7834C75.0798 48.2822 77.3482 44.8033 81.3269 42.9483C81.8091 42.7235 82.3757 42.2667 82.5227 41.7973C83.6995 38.0397 86.3546 35.8684 89.8345 34.363C91.7122 33.5507 93.7244 32.7797 93.0477 29.7596C92.6654 28.0537 95.4262 26.4446 98.0205 26.5573C98.0205 25.9651 98.0205 25.3774 98.0205 24.7608C98.2169 24.6564 98.3854 24.5203 98.5755 24.4745C99.1224 24.3426 100.002 24.4263 100.177 24.1077C101.181 22.2767 102.648 23.1438 103.655 23.6931C104.315 24.0531 104.651 25.3422 104.797 26.2684C105.62 31.4852 101.978 34.5787 99.0971 38.0131C98.207 39.0743 97.2388 40.0693 95.9571 41.4785C97.1091 41.4063 97.6816 41.3703 98.6754 41.308C97.9243 43.2536 97.4007 44.9864 96.6066 46.5834C95.2371 49.3376 93.5097 51.9247 92.2923 54.739C91.3204 56.9854 91.0185 59.5145 90.1805 61.8309C88.615 66.1581 87.1235 70.4614 86.6525 75.1054C86.3221 78.3634 85.1951 81.546 84.935 84.8034C84.6269 88.6607 84.3143 92.6699 85.0359 96.4125C85.6858 99.7834 87.6212 102.939 89.2073 106.078C89.9582 107.564 91.4718 108.067 93.2095 108.427C99.4541 109.724 104.816 107.866 110.069 104.675C112.836 102.994 114.911 100.658 117.261 98.5666C118.822 97.1772 120.527 95.9514 122.162 94.6455C122.491 94.3828 122.929 94.1507 123.09 93.7996C124.841 89.9722 128.269 88.0389 131.645 86.0187C133.922 84.6561 136.064 83.0404 138.426 81.8573C139.867 81.1352 141.609 81.0188 143.328 80.6031C143.913 79.8752 144.618 78.8799 145.443 77.9985C146.823 76.5247 147.128 74.1208 146.116 72.3038C143.653 67.883 142.033 63.2172 141.734 58.0967C141.633 56.3788 140.942 54.7502 142.032 53.0359C142.26 52.6772 141.318 51.5867 140.946 50.8185C140.558 50.0191 139.766 49.1091 139.912 48.4075C140.776 44.2672 139.539 40.4553 138.417 36.6059C138.358 36.4062 138.296 36.0988 138.158 36.0472C133.913 34.4521 137.003 30.7393 135.002 28.1574C138.065 28.1701 139.362 29.1438 139.59 31.3467C139.814 33.4992 139.929 35.665 140.223 37.8069C140.318 38.5018 140.825 39.1398 141.017 39.8438C141.439 41.3245 141.853 42.8072 142.285 44.2846C142.444 44.8264 142.826 45.3651 142.799 45.889C142.548 50.6767 145.238 54.6535 146.328 59.066C146.412 59.407 146.421 59.7668 146.411 60.4392C145.904 62.5159 146.11 64.0603 147.762 65.2536C148.044 65.4313 148.311 65.5035 148.582 65.5745C148.586 65.5734 148.592 65.5669 148.592 65.5669C150.214 66.921 152.22 66.7127 154.113 67.1059C156.036 67.5055 157.774 68.7596 159.636 69.5343C160.32 69.819 161.129 69.8028 162.014 69.8772C162.148 69.8306 162.159 69.8181 162.159 69.8181C165.676 70.2258 169.098 70.8896 172.131 72.9257C172.859 73.4148 173.81 73.6471 174.694 73.8102C176.602 74.1628 178.392 74.5792 179.584 76.3827C179.886 76.8395 180.744 77.015 181.382 77.139C182.548 77.3659 184.102 77.0343 184.857 77.6836C187.438 79.9034 191.427 79.7466 193.383 82.9281C193.574 83.2377 194.096 83.354 194.478 83.5303C197.901 85.1104 201.392 86.5602 204.723 88.3172C206.155 89.0729 207.257 90.4617 208.708 91.7386C208.611 92.0937 208.435 92.7317 208.186 93.6379C209.665 93.9621 211.22 93.9748 212.422 94.6351C214.873 95.9815 217.139 97.6689 219.468 99.2361C219.875 99.5098 220.203 99.8989 220.588 100.208C222.728 101.923 222.73 101.92 222.775 104.439C224.285 104.287 225.367 104.544 226.181 106.262C226.708 107.377 228.618 107.77 229.759 108.677C230.43 109.21 230.808 110.116 231.664 111.357C233.642 111.826 233.642 111.826 233.251 114.785C234.21 115.05 235.666 116.266 237.47 118.442C237.555 120.155 238.333 120.832 239.725 120.919C239.817 121.134 239.909 121.35 240.14 121.597C240.381 121.537 240.477 121.44 240.57 121.339C241.581 122.924 242.647 124.477 243.558 126.118C243.763 126.488 243.529 127.205 243.32 127.686C242.685 129.155 242.765 130.414 244.214 131.645C244.07 132.589 243.744 133.293 243.641 134.028C243.49 135.101 243.27 136.301 244.803 136.667C244.946 137.62 245.089 138.573 245.232 139.526C245.396 139.53 245.559 139.534 245.723 139.537C245.934 139.08 246.144 138.623 246.493 138.186C247.153 139.112 247.676 140.018 248.198 140.924C248.892 145.317 250.074 149.704 250.119 154.104C250.154 157.408 251.638 159.881 252.798 162.606C254.089 165.64 255.496 168.63 257.009 171.558C257.573 172.65 258.564 173.524 259.383 174.478C260.756 176.08 262.146 177.666 263.532 179.257C263.718 179.47 264.09 179.668 264.09 179.874C264.095 184.585 268.776 185.085 271.076 187.718C271.677 188.406 272.391 188.993 273.089 189.879C273.148 190.903 273.172 191.674 273.079 192.397C272.486 192.218 272.01 192.086 271.405 191.918C271.798 193.915 271.798 193.915 273.327 193.347C274.787 194.076 276.118 194.743 277.449 195.411C278.007 196.303 278.565 197.194 279 198.263C278.539 198.709 278.202 198.977 277.749 199.161C277.286 198.421 276.938 197.764 276.619 197.032C276.351 196.869 276.054 196.782 275.658 196.615C274.188 195.744 274.132 196.825 274.093 197.66C273.995 199.773 273.999 201.891 273.944 204.006C273.932 204.477 273.845 204.947 273.844 204.95C272.367 203.761 270.929 202.603 269.866 201.747C268.987 202.117 268.111 202.824 267.675 202.613C265.384 201.507 263.164 202.565 263.066 205.078C262.969 207.537 262.959 210.005 263.044 212.464C263.095 213.933 263.549 215.391 263.562 216.855C263.588 219.75 265.241 221.169 267.782 219.792C269.563 218.827 270.727 218.726 271.885 220.27C272.707 219.561 273.379 218.98 274.052 218.4C273.444 220.48 272.825 222.556 272.239 224.643C272.128 225.039 272.073 225.486 272.131 225.889C272.373 227.544 271.829 228.506 270.524 228.368C269.789 229.769 269.233 230.895 268.617 231.987C267.752 233.517 267.081 235.256 265.892 236.48C264.257 238.165 262.415 240.085 260.3 240.755C257.423 241.665 256.365 243.989 254.772 245.918C253.897 246.978 253.42 248.397 252.882 249.704C252.318 251.076 251.776 252.314 249.951 252.243C249.553 252.227 248.824 252.667 248.78 252.974C248.549 254.565 247.585 255.519 246.586 256.69C245.71 257.715 245.134 258.652 243.705 258.696C243.514 258.702 243.24 258.812 243.152 258.962C241.382 261.964 238.28 261.986 235.392 262.532C234.718 262.66 234.113 263.122 233.442 263.307C232.656 263.523 231.623 263.987 231.062 263.677C228.248 262.121 225.41 263.083 222.56 263.243C221.116 263.325 219.653 263.093 218.2 262.983C217.712 262.947 217.208 262.727 216.746 262.802C211.389 263.678 206.273 262.39 201.094 261.306C199.574 260.988 197.866 261.639 196.528 260.287C196.408 260.165 195.745 260.329 195.586 260.546C194.471 262.067 192.858 261.703 191.334 261.838C187.69 262.16 184.057 262.599 180.416 262.959C178.898 263.11 177.371 263.178 176.226 263.257C175.2 264.079 174.448 265.079 173.478 265.391C168.969 266.844 165.595 269.935 162.095 272.895C158.651 275.808 156.21 279.597 154.128 283.404C151.857 287.559 150.692 292.324 148.86 297.029C147.43 297.476 146.194 297.816 144.936 297.944C139.687 298.482 139.737 298.459 139.667 303.74C139.616 307.604 139.406 311.466 139.277 315.041C135.587 315.041 132.296 315.055 129.004 315.035C127.517 315.026 126.569 315.369 126.739 317.218C126.81 317.987 126.255 318.815 125.984 319.616C124.371 315.88 124.371 315.88 120.128 315.887C119.776 315.888 119.423 315.883 119.07 315.891C116.517 315.948 113.98 318.422 113.829 321ZM145.63 66.1684C145.017 67.2672 145.078 68.1333 146.058 68.6815C146.334 68.5791 146.61 68.4767 146.886 68.3743C146.543 67.6072 146.2 66.84 145.63 66.1684ZM56.2416 288.865C56.2223 288.34 56.2031 287.815 56.1839 287.29C55.75 287.379 55.3161 287.467 54.8823 287.556C55.2462 288.003 55.6102 288.45 56.2416 288.865ZM251.832 165.662C251.656 165.389 251.48 165.115 251.304 164.841C251.169 165.249 251.033 165.657 250.898 166.065C251.185 166.005 251.473 165.945 251.832 165.662ZM16.9969 240.4C16.9087 240.728 16.8205 241.056 16.7323 241.384C16.9819 241.383 17.2316 241.382 17.4812 241.382C17.3936 241.057 17.3061 240.731 16.9969 240.4ZM143.865 60.2827C144.182 60.2525 144.499 60.2224 144.816 60.1922C144.719 59.9696 144.622 59.747 144.525 59.5244C144.277 59.7122 144.029 59.9 143.865 60.2827ZM100.73 315.187C100.825 314.972 100.92 314.756 101.014 314.541C100.769 314.548 100.523 314.554 100.277 314.561C100.362 314.773 100.447 314.985 100.73 315.187ZM9.16249 218.882C8.93304 218.976 8.70359 219.07 8.47414 219.165C8.5723 219.31 8.67046 219.455 8.76862 219.6C8.91719 219.419 9.06576 219.237 9.16249 218.882ZM141.798 46.8446C141.728 46.6951 141.658 46.5455 141.588 46.396C141.475 46.5032 141.362 46.6103 141.249 46.7174C141.394 46.7947 141.54 46.8721 141.798 46.8446ZM236.424 260.689C236.523 260.638 236.622 260.588 236.721 260.538C236.684 260.487 236.647 260.437 236.61 260.386C236.525 260.456 236.439 260.526 236.424 260.689ZM4.672 163.208C4.69129 163.109 4.71058 163.01 4.72986 162.911C4.68751 162.994 4.64516 163.077 4.672 163.208Z" fill="#1AB5A7"/>
<path d="M121.544 12.4387C125.804 10.0496 127.333 10.5126 129.268 14.7594C132.172 21.1304 133.056 28.0165 134.359 34.7976C135.876 42.6883 137.212 50.6255 139.1 58.4289C140.184 62.9146 142.014 67.2574 143.857 71.5146C145.768 75.9275 145.537 77.1039 141.2 79.0781C132.348 83.107 124.449 88.3711 117.919 95.7079C114.169 99.9209 109.976 103.8 104.652 106.105C103.234 106.719 101.748 107.244 100.241 107.581C93.9232 108.995 89.9731 106.852 87.7896 100.779C85.655 94.8413 85.6614 88.6913 86.6069 82.578C89.8804 61.4113 98.2548 42.2445 110.353 24.7062C113.438 20.2343 117.698 16.5676 121.544 12.4387Z" fill="#010303"/>
<path d="M114 320.581C113.983 318.023 116.531 315.573 119.096 315.516C119.45 315.509 119.805 315.513 120.159 315.513C124.421 315.506 124.421 315.506 126.042 319.205C126.313 318.412 126.871 317.592 126.799 316.831C126.629 314.999 127.581 314.659 129.075 314.668C132.381 314.689 135.688 314.675 139.394 314.675C139.524 311.134 139.735 307.309 139.786 303.482C139.856 298.252 139.806 298.274 145.079 297.742C146.343 297.614 147.584 297.278 149 297C148.227 300.459 147.164 303.929 146.404 307.462C146.004 309.323 146.184 311.301 146.004 313.216C145.895 314.38 145.949 315.796 145.304 316.619C144.303 317.895 144.369 318.984 144.742 320.399C144.165 320.132 143.512 319.821 143.325 319.334C142.932 318.316 142.569 317.383 141.279 318.047C140.054 318.677 139.579 319.677 140.434 320.978C141.08 321.962 141.717 322.951 142.358 323.938C141.313 323.993 140.268 324.048 139.031 323.931C138.45 323.824 138.061 323.887 137.673 323.95C132.537 323.391 127.402 322.832 122.122 322.121C121.659 321.392 121.404 320.373 121.012 320.319C119.801 320.15 118.248 319.545 117.66 321.423C116.496 321.144 115.332 320.864 114 320.581ZM131.316 321.765C131.913 321.532 132.509 321.3 133.105 321.067C133.059 320.876 133.013 320.685 132.967 320.493C131.512 320.074 130.064 319.746 128.692 321.434C129.456 321.556 130.22 321.677 131.316 321.765Z" fill="#1BB5A6"/>
<path d="M274.4 217.932C273.737 218.659 273.042 219.239 272.193 219.948C270.996 218.404 269.794 218.505 267.955 219.47C265.329 220.846 263.622 219.428 263.595 216.534C263.581 215.069 263.112 213.611 263.06 212.144C262.972 209.684 262.982 207.217 263.082 204.758C263.183 202.246 265.477 201.187 267.843 202.294C268.294 202.504 269.199 201.798 270.107 201.428C271.205 202.283 272.691 203.441 274.217 204.631C274.218 204.627 274.307 204.158 274.32 203.687C274.377 201.571 274.373 199.454 274.474 197.341C274.514 196.506 274.573 195.425 276.19 196.362C276.613 196.602 276.833 196.695 277.053 196.789C277.413 197.446 277.772 198.102 278.288 198.998C278.764 200.61 279.033 202.026 281 201.906C280.906 202.942 280.812 203.977 280.452 205.162C276.792 205.35 275.855 206.285 277.225 208.617C278.055 210.03 277.904 211.209 277.497 212.551C276.85 213.27 276.066 213.915 275.59 214.73C275.041 215.67 274.763 216.76 274.4 217.932ZM276.672 203.543C276.984 203.334 277.296 203.125 277.608 202.916C277.374 202.689 277.141 202.462 276.908 202.235C276.774 202.612 276.64 202.99 276.672 203.543ZM278.679 203.887C278.927 203.796 279.175 203.704 279.423 203.613C279.32 203.467 279.217 203.322 279.115 203.177C278.951 203.354 278.787 203.532 278.679 203.887Z" fill="#1BB5A6"/>
<path d="M3.71085 193.345C4.65891 195.058 6.57879 196.391 5.83096 198.568C5.5261 199.455 4.73157 200.179 4.01008 201C3.44781 200.198 3.05303 199.365 2.61097 198.556C2.49211 198.339 2.08735 198.22 2.05449 198.018C1.67619 195.693 1.34426 193.36 1 191.03C1.17608 191.02 1.35215 191.01 1.52823 191C2.20672 191.774 2.88521 192.548 3.71085 193.345Z" fill="#1BB5A6"/>
<path d="M4.4792 177C4.7811 177.353 5.31392 177.667 5.34853 178.065C5.63671 181.378 5.92392 184.702 5.9995 188.033C6.02102 188.981 5.34682 189.96 4.88957 191C4.51323 190.851 4.23897 190.627 4 190.199C4.18306 189.173 4.44718 188.355 4.4584 187.53C4.50615 184.021 4.47901 180.51 4.4792 177Z" fill="#1BB5A6"/>
<path d="M9.29474 224.427C9.77943 224.237 10.1776 224.154 10.5752 224.066C11.7185 223.814 12.2046 224.249 11.9208 225.905C11.7264 227.039 11.8609 228.265 11.7054 229.418C11.5883 230.285 11.2445 231.101 10.8831 232C9.61813 229.771 8.43114 227.497 9.29474 224.427Z" fill="#19B6A8"/>
<path d="M142.618 324C141.779 323.034 141.119 322.062 140.45 321.097C139.563 319.819 140.056 318.838 141.325 318.219C142.663 317.567 143.039 318.484 143.446 319.483C143.64 319.961 144.317 320.266 144.934 320.674C145.045 322.238 145.328 323.982 142.618 324Z" fill="#1AB5A7"/>
<path d="M3.8282 177C3.99757 180.485 4.03619 183.97 3.96827 187.454C3.95231 188.273 3.57664 189.085 3.22842 190C2.94293 189.333 2.74378 188.572 2.66323 187.799C2.58922 187.089 2.85985 186.281 2.60313 185.663C1.44278 182.871 2.24367 180.131 2.63943 177.187C2.97927 177.002 3.31891 177.001 3.8282 177Z" fill="#19B6A8"/>
<path d="M277.787 213C278.023 211.761 278.144 210.609 277.481 209.228C276.386 206.949 277.135 206.036 280 206C279.934 208.56 279.618 211.075 277.787 213Z" fill="#1AB5A7"/>
<path d="M245.217 137C243.748 136.79 243.957 135.57 244.101 134.477C244.199 133.729 244.509 133.013 244.764 132.123C245.137 131.642 245.47 131.322 245.806 131C247.406 133.014 247.375 133.67 245.852 135.346C245.519 135.713 245.429 136.333 245.217 137Z" fill="#19B6A8"/>
<path d="M274.033 192.316C274.01 191.587 273.987 190.858 274.008 190C275.347 191.54 276.643 193.21 278 195C276.801 194.49 275.54 193.858 274.156 193.036C274.033 192.669 274.033 192.493 274.033 192.316Z" fill="#19B6A8"/>
<path d="M118 321.388C118.428 319.452 119.926 320.053 121.096 320.22C121.474 320.274 121.72 321.286 122 322C120.695 321.914 119.418 321.686 118 321.388Z" fill="#1AB5A7"/>
<path d="M147.876 65.5958C145.932 64.4943 145.687 62.9301 146.293 61C147.799 62.2415 149.453 63.5523 148.886 65.8645C148.88 66.0202 148.872 66.0267 148.801 65.9594C148.445 65.7934 148.16 65.6946 147.876 65.5958Z" fill="#1BB5A6"/>
<path d="M281 201.969C278.723 202.206 278.412 201.051 278 199.804C278.36 199.458 278.763 199.239 279.326 199C279.991 199.929 280.495 200.879 281 201.969Z" fill="#19B6A8"/>
<path d="M249 141C248.366 140.261 247.728 139.338 247 138.273C247.059 137.427 247.208 136.723 247.357 136.018C247.646 136.012 247.935 136.006 248.224 136C248.481 137.605 248.738 139.21 249 141Z" fill="#1BB5A6"/>
<path d="M240 120.997C238.702 121.051 237.959 120.451 238.002 119C238.654 119.523 239.311 120.194 240 120.997Z" fill="#19B6A8"/>
<path d="M138 324C138.217 324 138.584 324 139 324C138.749 324 138.449 324 138 324Z" fill="#1AB5A7"/>
<path d="M241 122C240.948 122 240.615 122 240 122C240.05 122 240.383 122 241 122Z" fill="#19B6A8"/>
<path d="M181.611 39.117C184.66 36.9997 187.568 34.9329 190.554 32.9962C193.29 31.2218 196.092 29.552 198.908 27.9154C199.676 27.469 200.581 27.176 201.456 27.0457C203.024 26.8121 204.105 27.4624 203.992 29.2734C203.849 31.5621 203.755 33.8774 203.332 36.1193C202.244 41.8927 201.062 47.6502 199.77 53.3785C198.891 57.2766 197.654 61.0885 196.779 64.9871C195.969 68.5904 194.845 72.2099 195.927 75.9937C195.992 76.2225 195.817 76.5245 195.706 77C195.043 76.8282 194.428 76.765 193.895 76.5142C191.511 75.3918 189.162 74.1909 186.78 73.0653C183.418 71.4771 180.059 69.8792 176.66 68.3796C172.977 66.7548 169.278 65.1601 165.53 63.7066C163.599 62.958 161.497 62.6824 159.571 61.9234C158.567 61.5275 157.535 60.6901 157.02 59.7553C156.833 59.416 157.986 58.0503 158.742 57.4316C163.827 53.2653 168.965 49.1664 174.097 45.0616C176.553 43.0979 179.034 41.1689 181.611 39.117Z" fill="#1BB5A6"/>
<path d="M145.601 66C146.16 66.8427 146.58 67.7414 147 68.6401C146.662 68.7601 146.324 68.88 145.986 69C144.786 68.3577 144.711 67.3432 145.601 66Z" fill="#27AEA1"/>
<path d="M55.9312 289C55.553 288.458 55.2765 287.896 55 287.334C55.3296 287.223 55.6593 287.111 55.9889 287C56.0035 287.66 56.0181 288.32 55.9312 289Z" fill="#27AEA1"/>
<path d="M273.868 192.563C273.999 192.838 273.999 193.057 274 193.441C272.439 194.344 272.439 194.344 272 192C272.675 192.197 273.206 192.352 273.868 192.563Z" fill="#27AEA1"/>
<path d="M252 165.762C251.64 165.902 251.32 165.951 251 166C251.151 165.667 251.302 165.333 251.453 165C251.648 165.224 251.844 165.447 252 165.762Z" fill="#27AEA1"/>
<path d="M16.5013 240C16.7661 240.335 16.8831 240.666 17 240.998C16.6667 240.999 16.3333 240.999 16 241C16.1178 240.666 16.2356 240.331 16.5013 240Z" fill="#27AEA1"/>
<path d="M144 60.9422C144.207 60.5355 144.458 60.2678 144.708 60C144.805 60.3174 144.903 60.6348 145 60.9522C144.681 60.9952 144.362 61.0382 144 60.9422Z" fill="#27AEA1"/>
<path d="M100.48 315C100.23 314.682 100.115 314.356 100 314.03C100.333 314.02 100.667 314.01 101 314C100.872 314.331 100.743 314.662 100.48 315Z" fill="#27AEA1"/>
<path d="M9 219C8.82828 219.425 8.62029 219.713 8.41229 220C8.27485 219.77 8.13743 219.54 8 219.31C8.32124 219.161 8.64247 219.011 9 219Z" fill="#27AEA1"/>
<path d="M142 47C141.59 47 141.295 47 141 47C141.229 47 141.458 47 141.687 47C141.829 47 141.972 47 142 47Z" fill="#27AEA1"/>
<path d="M148 66C148.296 66 148.611 66 149 66C148.723 66 148.371 66 148 66Z" fill="#27AEA1"/>
<path d="M237 261C237 260.547 237 260.273 237 260C237 260.197 237 260.394 237 260.591C237 260.788 237 260.984 237 261Z" fill="#27AEA1"/>
<path d="M277 197C276.683 197 276.405 197 276 197C276.262 197 276.65 197 277 197Z" fill="#27AEA1"/>
<path d="M58.0007 293C58.1822 293 58.3413 293 58.556 293C58.6038 293 58.8469 293 59 293C58.7839 293 58.5678 293 58.1721 293C57.9925 293 57.9984 293 58.0007 293Z" fill="#27AEA1"/>
<path d="M131.228 322C130.385 321.871 129.693 321.722 129 321.573C130.244 319.496 131.556 319.899 132.875 320.415C132.916 320.651 132.958 320.886 133 321.121C132.46 321.407 131.919 321.694 131.228 322Z" fill="#1AB5A7"/>
<path d="M277 204C277.05 203.619 277.181 203.309 277.313 203C277.542 203.186 277.771 203.372 278 203.558C277.694 203.73 277.388 203.901 277 204Z" fill="#1AB5A7"/>
</svg>
